####
#
# OBJ File Generated by Meshlab
#
####
# Object sphere.obj
#
# Vertices: 174
# Faces: 344
#
####
vn -2.493013 -4.151847 -3.413393
v -0.504230 -0.625000 -0.600528
vn -0.000120 -5.127008 -2.881375
v 0.000000 -0.781232 -0.600528
vn 0.000000 -3.895160 -4.667055
v 0.000000 -0.625000 -0.774312
vn -5.122851 -0.000131 -2.885357
v -0.781933 0.000000 -0.600528
vn -4.146056 -2.499335 -3.415308
v -0.625000 -0.504507 -0.600528
vn -3.891474 0.000000 -4.670275
v -0.625000 0.000000 -0.774692
vn -1.191224 -2.069296 -5.650661
v -0.269244 -0.312500 -0.913028
vn 0.000444 -2.796251 -5.423475
v 0.000000 -0.410241 -0.913028
vn 0.000565 -1.533306 -5.960162
v 0.000000 -0.312500 -0.948787
vn -2.793393 0.000440 -5.424582
v -0.410584 0.000000 -0.913028
vn -2.066216 -1.193909 -5.651414
v -0.312500 -0.269333 -0.913028
vn -1.531234 0.000560 -5.960533
v -0.312500 0.000000 -0.948863
vn 0.000104 0.000103 -6.058713
v 0.000000 0.000000 -0.998226
vn -3.964885 -1.771868 -4.082590
v -0.625000 -0.312500 -0.712200
vn -1.768217 -3.969631 -4.079585
v -0.312500 -0.625000 -0.711871
vn -2.304429 -2.308585 -5.211478
v -0.312500 -0.312500 -0.899837
vn -4.816902 -3.553471 -0.317497
v -0.783858 -0.625000 0.024472
vn -3.540797 -4.824437 -0.318368
v -0.625000 -0.783604 0.024472
vn -3.791525 -3.799215 -2.197034
v -0.625000 -0.625000 -0.475528
vn 0.000671 -5.920166 -0.621300
v 0.000000 -0.993001 0.024472
vn -5.915186 0.000599 -0.621381
v -0.994634 0.000000 0.024472
vn 2.493088 -4.151713 -3.413674
v 0.504230 -0.625000 -0.600528
vn 1.185644 -2.070471 -5.652923
v 0.268851 -0.312500 -0.913028
vn 2.064541 -1.194890 -5.651183
v 0.312500 -0.269333 -0.913028
vn 1.534095 0.000560 -5.959232
v 0.312500 0.000000 -0.948863
vn 2.795779 0.000439 -5.424692
v 0.410270 0.000000 -0.913028
vn 1.768165 -3.969494 -4.079682
v 0.312500 -0.625000 -0.711871
vn 2.297195 -2.308946 -5.212861
v 0.312500 -0.312500 -0.899837
vn 4.147559 -2.495631 -3.414400
v 0.625000 -0.504507 -0.600528
vn 3.970433 -1.767093 -4.074002
v 0.625000 -0.312500 -0.712200
vn 3.898030 0.000000 -4.662427
v 0.625000 0.000000 -0.774530
vn 5.132586 -0.000027 -2.884261
v 0.780612 0.000000 -0.600528
vn 3.547887 -4.816607 -0.316804
v 0.625000 -0.783604 0.024472
vn 3.792351 -3.798916 -2.195859
v 0.625000 -0.625000 -0.475528
vn 4.822018 -3.557354 -0.313335
v 0.782812 -0.625000 0.024472
vn 5.912933 0.000599 -0.626585
v 0.994634 0.000000 0.024472
vn -4.145500 2.499380 -3.415874
v -0.625000 0.504507 -0.600528
vn -2.067389 1.188350 -5.653667
v -0.312500 0.268944 -0.913028
vn -1.192205 2.067635 -5.650427
v -0.269245 0.312500 -0.913028
vn 0.000565 1.536170 -5.958861
v 0.000000 0.312500 -0.948787
vn 0.000443 2.798645 -5.423576
v 0.000000 0.409928 -0.913028
vn -3.964723 1.771876 -4.082664
v -0.625000 0.312500 -0.712200
vn -2.304806 2.301385 -5.212856
v -0.312500 0.312500 -0.899837
vn -2.489297 4.152924 -3.412754
v -0.504230 0.625000 -0.600528
vn -1.763512 3.975130 -4.070992
v -0.312500 0.625000 -0.711871
vn -0.000000 3.901705 -4.659215
v 0.000000 0.625000 -0.774150
vn -0.000017 5.136707 -2.880257
v 0.000000 0.779919 -0.600528
vn -4.809008 3.560670 -0.315907
v -0.783858 0.625000 0.024472
vn -3.791199 3.800083 -2.195865
v -0.625000 0.625000 -0.475528
vn -3.544630 4.829654 -0.314252
v -0.625000 0.782553 0.024472
vn 0.000671 5.917928 -0.626488
v 0.000000 0.993001 0.024472
vn 1.186606 2.068820 -5.652699
v 0.268851 0.312500 -0.913028
vn 2.065719 1.189326 -5.653441
v 0.312500 0.268944 -0.913028
vn 2.297549 2.301739 -5.214241
v 0.312500 0.312500 -0.899837
vn 3.970439 1.767396 -4.073530
v 0.625000 0.312500 -0.712200
vn 1.763754 3.975159 -4.070539
v 0.312500 0.625000 -0.711871
vn 2.481805 4.155089 -3.420629
v 0.504097 0.625000 -0.600528
vn 4.149327 2.488092 -3.422574
v 0.625000 0.504374 -0.600528
vn 3.779395 3.787027 -2.206774
v 0.625000 0.625000 -0.477475
vn 4.815289 3.565071 -0.309692
v 0.782793 0.625000 0.024472
vn 3.552240 4.822960 -0.310635
v 0.625000 0.782537 0.024472
vn -4.671792 -3.540536 1.710363
v -0.724182 -0.625000 0.336972
vn -3.531484 -4.678469 1.708787
v -0.625000 -0.724042 0.336972
vn -3.847674 -3.854566 2.789402
v -0.625000 -0.625000 0.511913
vn -2.316949 -5.519033 -0.786931
v -0.341377 -0.937500 0.024472
vn -1.433118 -5.803985 -0.884450
v -0.312500 -0.947056 0.024472
vn -1.936876 -5.763516 0.836016
v -0.312500 -0.937500 0.161437
vn -0.879760 -5.791742 1.850362
v -0.146870 -0.937500 0.336972
vn 0.005230 -6.061867 1.409284
v 0.000000 -0.947584 0.336972
vn -2.084344 -5.402732 1.971802
v -0.312500 -0.898089 0.336972
vn 0.006525 -5.732286 2.413439
v 0.000000 -0.937500 0.367999
vn -2.991729 -3.900734 3.643586
v -0.496291 -0.625000 0.649472
vn -1.822226 -4.758821 3.362878
v -0.312500 -0.733824 0.649472
vn 0.001838 -4.987710 3.465843
v 0.000000 -0.796537 0.649472
vn -5.794607 -1.448950 -0.876791
v -0.948178 -0.312500 0.024472
vn -5.507500 -2.336846 -0.775318
v -0.937500 -0.344322 0.024472
vn -5.756223 -1.951681 0.854643
v -0.937500 -0.312500 0.169102
vn -5.393819 -2.111786 1.984656
v -0.899070 -0.312500 0.336972
vn -6.053730 0.004827 1.419131
v -0.949146 0.000000 0.336972
vn -5.783126 -0.914424 1.857278
v -0.937500 -0.156385 0.336972
vn -4.751065 -1.829213 3.369035
v -0.734463 -0.312500 0.649472
vn -3.893405 -2.998528 3.645285
v -0.625000 -0.496594 0.649472
vn -5.717085 0.006014 2.435400
v -0.937500 0.000000 0.372368
vn -4.980065 0.001668 3.476366
v -0.797483 0.000000 0.649472
vn -1.842921 -3.619353 4.520873
v -0.312500 -0.625000 0.767314
vn 0.000001 -3.681514 4.749122
v 0.000000 -0.625000 0.836899
vn -3.613167 -1.845949 4.524974
v -0.625000 -0.312500 0.767600
vn -3.674595 0.000000 4.754698
v -0.625000 0.000000 0.837212
vn -2.211507 -2.213162 5.277509
v -0.312500 -0.312500 0.949297
vn -1.054458 -1.927860 5.712025
v -0.266976 -0.312500 0.961972
vn 0.000452 -2.582901 5.542445
v 0.000000 -0.404317 0.961972
vn -2.580333 0.000452 5.544450
v -0.404277 0.000000 0.961972
vn -1.926606 -1.053744 5.713089
v -0.312500 -0.266949 0.961972
vn 0.000532 -1.274392 6.048747
v 0.000000 -0.312500 0.990740
vn -1.274541 0.000533 6.048761
v -0.312500 0.000000 0.990729
vn 0.000098 0.000098 6.155278
v 0.000000 0.000000 1.026620
vn 0.873046 -5.796509 1.851352
v 0.143241 -0.937500 0.336972
vn 1.423488 -5.809413 -0.882844
v 0.312500 -0.947056 0.024472
vn 1.932665 -5.763658 0.840484
v 0.312500 -0.937500 0.161437
vn 2.310287 -5.519410 -0.783025
v 0.341696 -0.937500 0.024472
vn 2.070009 -5.404685 1.972061
v 0.312500 -0.898089 0.336972
vn 3.541057 -4.668681 1.705221
v 0.625000 -0.724041 0.336972
vn 1.819030 -4.761510 3.360778
v 0.312500 -0.733824 0.649472
vn 2.990541 -3.896886 3.639431
v 0.497008 -0.625000 0.649472
vn 3.859515 -3.844851 2.779777
v 0.625000 -0.625000 0.511913
vn 4.682468 -3.535037 1.708369
v 0.723222 -0.625000 0.336972
vn 3.907719 -2.986291 3.634614
v 0.625000 -0.496594 0.649472
vn 5.386034 -2.116311 1.992365
v 0.899016 -0.312500 0.336972
vn 5.502682 -2.342189 -0.774875
v 0.937500 -0.344322 0.024472
vn 5.752440 -1.957868 0.855083
v 0.937500 -0.312500 0.169103
vn 5.791826 -1.449249 -0.881682
v 0.948191 -0.312500 0.024472
vn 5.780599 -0.918031 1.860416
v 0.937500 -0.156385 0.336972
vn 6.053498 0.004830 1.419587
v 0.949153 0.000000 0.336972
vn 4.763767 -1.836124 3.362963
v 0.733115 -0.312500 0.649472
vn 4.976341 0.001709 3.473399
v 0.797752 0.000000 0.649472
vn 5.718365 0.006009 2.433552
v 0.937500 0.000000 0.372367
vn 1.841120 -3.618866 4.522520
v 0.312500 -0.625000 0.767314
vn 1.048922 -1.928632 5.714278
v 0.266533 -0.312500 0.961972
vn 2.204264 -2.213425 5.278733
v 0.312500 -0.312500 0.949297
vn 3.622966 -1.845352 4.513774
v 0.625000 -0.312500 0.767600
vn 1.923077 -1.057157 5.713580
v 0.312500 -0.266949 0.961972
vn 2.576646 0.000454 5.542977
v 0.405034 0.000000 0.961972
vn 3.679090 -0.000000 4.752687
v 0.625000 0.000000 0.837212
vn 1.267854 0.000533 6.051322
v 0.312500 0.000000 0.990729
vn -5.800089 1.439350 -0.875193
v -0.948178 0.312500 0.024472
vn -5.787826 0.907316 1.858402
v -0.937500 0.153077 0.336972
vn -5.756370 1.947488 0.859097
v -0.937500 0.312500 0.169103
vn -5.395876 2.097505 1.984965
v -0.899070 0.312500 0.336972
vn -5.507754 2.330322 -0.771295
v -0.937500 0.344671 0.024472
vn -4.661966 3.550108 1.706842
v -0.724182 0.625000 0.336972
vn -4.753691 1.826128 3.367035
v -0.734463 0.312500 0.649472
vn -3.888750 2.997304 3.641615
v -0.625000 0.497314 0.649472
vn -3.837947 3.866434 2.779694
v -0.625000 0.625000 0.511913
vn -2.979435 3.914234 3.633440
v -0.496291 0.625000 0.649472
vn -3.525926 4.689244 1.706824
v -0.625000 0.723077 0.336972
vn -2.322293 5.514279 -0.786532
v -0.341377 0.937500 0.024472
vn -2.088915 5.394958 1.979444
v -0.312500 0.898034 0.336972
vn -1.943129 5.759718 0.836443
v -0.312500 0.937500 0.161437
vn -0.883369 5.789343 1.853332
v -0.146870 0.937500 0.336972
vn -1.433448 5.801229 -0.889343
v -0.312500 0.947067 0.024472
vn 0.005234 6.061633 1.409770
v 0.000000 0.947590 0.336972
vn -1.831356 4.772610 3.355015
v -0.312500 0.732485 0.649472
vn 0.001884 4.985850 3.461251
v 0.000000 0.796807 0.649472
vn 0.006520 5.733517 2.411632
v 0.000000 0.937500 0.367999
vn -3.612619 1.844269 4.526582
v -0.625000 0.312500 0.767600
vn -1.927377 1.048203 5.715342
v -0.312500 0.266505 0.961972
vn -2.211768 2.205913 5.278736
v -0.312500 0.312500 0.949297
vn -1.057863 1.924334 5.712514
v -0.266976 0.312500 0.961972
vn -1.844863 3.627497 4.510804
v -0.312500 0.625000 0.767314
vn 0.000453 2.579237 5.540970
v 0.000000 0.405069 0.961972
vn -0.000000 3.684694 4.749027
v 0.000000 0.625000 0.836899
vn 0.000532 1.267741 6.051293
v 0.000000 0.312500 0.990740
vn 2.975498 3.915290 3.623930
v 0.497491 0.625000 0.649472
vn 3.907953 2.982338 3.625605
v 0.625000 0.497796 0.649472
vn 3.850909 3.857841 2.766401
v 0.625000 0.625000 0.512081
vn 5.388085 2.102020 1.992664
v 0.899016 0.312500 0.336972
vn 5.785337 0.910923 1.861502
v 0.937500 0.153076 0.336972
vn 5.752557 1.953735 0.859507
v 0.937500 0.312500 0.169102
vn 5.797318 1.439656 -0.880098
v 0.948191 0.312500 0.024472
vn 4.673663 3.543817 1.705427
v 0.723222 0.625000 0.336972
vn 5.503344 2.335197 -0.770219
v 0.937500 0.344670 0.024472
vn 4.767476 1.831666 3.360686
v 0.733115 0.312500 0.649472
vn 0.876653 5.794150 1.854279
v 0.143241 0.937500 0.336972
vn 2.074568 5.396906 1.979697
v 0.312500 0.898034 0.336972
vn 1.938970 5.759834 0.840891
v 0.312500 0.937500 0.161437
vn 2.315146 5.515072 -0.782001
v 0.341696 0.937500 0.024472
vn 3.534710 4.680473 1.703849
v 0.625000 0.723077 0.336972
vn 1.423819 5.806669 -0.887749
v 0.312500 0.947067 0.024472
vn 1.826779 4.776385 3.352633
v 0.312500 0.732485 0.649472
vn 1.052321 1.925110 5.714774
v 0.266533 0.312500 0.961972
vn 1.923852 1.051609 5.715839
v 0.312500 0.266505 0.961972
vn 2.204517 2.206167 5.279960
v 0.312500 0.312500 0.949297
vn 3.622671 1.841446 4.516791
v 0.625000 0.312500 0.767600
vn 1.840830 3.627266 4.513860
v 0.312500 0.625000 0.767314
# 174 vertices, 0 vertices normals

f 2//2 1//1 15//15
f 15//15 3//3 2//2
f 4//4 6//6 14//14
f 4//4 14//14 5//5
f 7//7 9//9 8//8
f 10//10 12//12 11//11
f 11//11 12//12 13//13
f 7//7 11//11 13//13
f 13//13 9//9 7//7
f 15//15 5//5 14//14
f 14//14 16//16 15//15
f 5//5 15//15 1//1
f 8//8 3//3 15//15
f 7//7 8//8 15//15
f 15//15 16//16 7//7
f 11//11 16//16 14//14
f 10//10 11//11 14//14
f 14//14 6//6 10//10
f 7//7 16//16 11//11
f 17//17 19//19 18//18
f 65//65 18//18 19//19
f 65//65 19//19 1//1
f 65//65 1//1 2//2
f 2//2 20//20 66//66
f 2//2 66//66 65//65
f 75//75 21//21 4//4
f 76//76 4//4 5//5
f 5//5 19//19 76//76
f 19//19 17//17 76//76
f 4//4 76//76 75//75
f 1//1 19//19 5//5
f 2//2 3//3 27//27
f 2//2 27//27 22//22
f 8//8 9//9 23//23
f 23//23 9//9 13//13
f 24//24 23//23 13//13
f 13//13 25//25 24//24
f 24//24 25//25 26//26
f 23//23 28//28 27//27
f 8//8 23//23 27//27
f 27//27 3//3 8//8
f 29//29 22//22 27//27
f 27//27 28//28 30//30
f 27//27 30//30 29//29
f 24//24 28//28 23//23
f 26//26 31//31 30//30
f 24//24 26//26 30//30
f 30//30 28//28 24//24
f 32//32 29//29 30//30
f 30//30 31//31 32//32
f 2//2 100//100 98//98
f 98//98 20//20 2//2
f 100//100 2//2 22//22
f 100//100 22//22 34//34
f 100//100 34//34 33//33
f 33//33 34//34 35//35
f 29//29 34//34 22//22
f 32//32 111//111 109//109
f 109//109 35//35 34//34
f 109//109 34//34 29//29
f 109//109 29//29 32//32
f 111//111 32//32 36//36
f 4//4 37//37 42//42
f 42//42 6//6 4//4
f 38//38 12//12 10//10
f 39//39 40//40 13//13
f 38//38 39//39 13//13
f 13//13 12//12 38//38
f 41//41 40//40 39//39
f 10//10 6//6 42//42
f 38//38 10//10 42//42
f 42//42 43//43 38//38
f 38//38 43//43 39//39
f 42//42 44//44 45//45
f 45//45 43//43 42//42
f 44//44 42//42 37//37
f 39//39 43//43 45//45
f 41//41 39//39 45//45
f 45//45 46//46 41//41
f 47//47 46//46 45//45
f 47//47 45//45 44//44
f 129//129 48//48 49//49
f 129//129 49//49 37//37
f 129//129 37//37 4//4
f 4//4 21//21 125//125
f 4//4 125//125 129//129
f 37//37 49//49 44//44
f 50//50 49//49 48//48
f 140//140 51//51 47//47
f 136//136 47//47 44//44
f 44//44 49//49 136//136
f 49//49 50//50 136//136
f 47//47 136//136 140//140
f 53//53 25//25 13//13
f 52//52 53//53 13//13
f 13//13 40//40 52//52
f 26//26 25//25 53//53
f 52//52 40//40 41//41
f 52//52 54//54 53//53
f 53//53 54//54 55//55
f 26//26 53//53 55//55
f 55//55 31//31 26//26
f 41//41 46//46 56//56
f 52//52 41//41 56//56
f 56//56 54//54 52//52
f 56//56 58//58 55//55
f 55//55 54//54 56//56
f 58//58 56//56 57//57
f 32//32 31//31 55//55
f 32//32 55//55 58//58
f 47//47 57//57 56//56
f 56//56 46//46 47//47
f 57//57 59//59 58//58
f 159//159 36//36 32//32
f 161//161 159//159 32//32
f 32//32 58//58 161//161
f 58//58 59//59 161//161
f 59//59 60//60 161//161
f 166//166 61//61 59//59
f 166//166 59//59 57//57
f 166//166 57//57 47//47
f 168//168 166//166 47//47
f 47//47 51//51 168//168
f 60//60 59//59 61//61
f 62//62 17//17 18//18
f 62//62 18//18 63//63
f 63//63 64//64 62//62
f 66//66 67//67 65//65
f 20//20 68//68 67//67
f 67//67 66//66 20//20
f 68//68 20//20 69//69
f 67//67 63//63 18//18
f 18//18 65//65 67//67
f 63//63 67//67 70//70
f 70//70 67//67 68//68
f 69//69 71//71 68//68
f 73//73 72//72 64//64
f 64//64 63//63 73//73
f 63//63 70//70 73//73
f 73//73 70//70 68//68
f 74//74 73//73 68//68
f 68//68 71//71 74//74
f 76//76 77//77 75//75
f 62//62 78//78 77//77
f 77//77 76//76 17//17
f 77//77 17//17 62//62
f 80//80 79//79 21//21
f 21//21 75//75 77//77
f 21//21 77//77 80//80
f 80//80 77//77 78//78
f 81//81 78//78 62//62
f 81//81 62//62 64//64
f 81//81 64//64 82//82
f 80//80 83//83 79//79
f 84//84 83//83 80//80
f 81//81 84//84 80//80
f 80//80 78//78 81//81
f 82//82 64//64 72//72
f 73//73 85//85 72//72
f 74//74 86//86 85//85
f 74//74 85//85 73//73
f 82//82 87//87 81//81
f 84//84 81//81 87//87
f 87//87 88//88 84//84
f 87//87 82//82 72//72
f 85//85 89//89 87//87
f 72//72 85//85 87//87
f 90//90 89//89 85//85
f 91//91 90//90 85//85
f 85//85 86//86 91//91
f 92//92 88//88 87//87
f 93//93 92//92 87//87
f 87//87 89//89 93//93
f 93//93 89//89 90//90
f 91//91 94//94 90//90
f 93//93 95//95 92//92
f 90//90 94//94 96//96
f 93//93 90//90 96//96
f 96//96 95//95 93//93
f 97//97 69//69 20//20
f 20//20 98//98 99//99
f 20//20 99//99 97//97
f 100//100 99//99 98//98
f 97//97 99//99 101//101
f 102//102 101//101 99//99
f 99//99 100//100 33//33
f 99//99 33//33 102//102
f 97//97 71//71 69//69
f 74//74 71//71 97//97
f 103//103 74//74 97//97
f 97//97 101//101 103//103
f 103//103 101//101 102//102
f 103//103 102//102 105//105
f 103//103 105//105 104//104
f 106//106 102//102 33//33
f 33//33 35//35 106//106
f 106//106 105//105 102//102
f 104//104 105//105 107//107
f 110//110 106//106 35//35
f 35//35 109//109 110//110
f 106//106 110//110 108//108
f 111//111 110//110 109//109
f 108//108 110//110 112//112
f 36//36 112//112 110//110
f 110//110 111//111 36//36
f 112//112 36//36 113//113
f 114//114 107//107 105//105
f 105//105 106//106 114//114
f 106//106 108//108 114//114
f 114//114 108//108 112//112
f 115//115 114//114 112//112
f 112//112 116//116 115//115
f 113//113 116//116 112//112
f 74//74 103//103 117//117
f 117//117 86//86 74//74
f 104//104 117//117 103//103
f 91//91 86//86 117//117
f 118//118 91//91 117//117
f 117//117 119//119 118//118
f 117//117 107//107 120//120
f 120//120 119//119 117//117
f 107//107 117//117 104//104
f 118//118 119//119 121//121
f 121//121 119//119 120//120
f 122//122 121//121 120//120
f 120//120 123//123 122//122
f 118//118 94//94 91//91
f 121//121 124//124 96//96
f 118//118 121//121 96//96
f 96//96 94//94 118//118
f 122//122 124//124 121//121
f 114//114 120//120 107//107
f 114//114 115//115 123//123
f 123//123 120//120 114//114
f 21//21 126//126 127//127
f 127//127 125//125 21//21
f 126//126 21//21 79//79
f 128//128 127//127 126//126
f 125//125 127//127 129//129
f 127//127 130//130 48//48
f 48//48 129//129 127//127
f 130//130 127//127 128//128
f 79//79 83//83 126//126
f 131//131 128//128 126//126
f 84//84 131//131 126//126
f 126//126 83//83 84//84
f 131//131 132//132 133//133
f 133//133 130//130 131//131
f 130//130 128//128 131//131
f 134//134 133//133 132//132
f 135//135 50//50 48//48
f 135//135 48//48 130//130
f 130//130 133//133 135//135
f 135//135 137//137 138//138
f 138//138 136//136 50//50
f 138//138 50//50 135//135
f 139//139 138//138 137//137
f 136//136 138//138 140//140
f 139//139 141//141 51//51
f 51//51 140//140 138//138
f 51//51 138//138 139//139
f 142//142 137//137 135//135
f 142//142 135//135 133//133
f 142//142 133//133 134//134
f 143//143 144//144 139//139
f 142//142 143//143 139//139
f 139//139 137//137 142//142
f 139//139 144//144 141//141
f 84//84 88//88 145//145
f 84//84 145//145 131//131
f 131//131 145//145 132//132
f 146//146 147//147 145//145
f 92//92 146//146 145//145
f 145//145 88//88 92//92
f 148//148 147//147 146//146
f 134//134 132//132 145//145
f 145//145 147//147 149//149
f 145//145 149//149 134//134
f 150//150 151//151 149//149
f 148//148 150//150 149//149
f 149//149 147//147 148//148
f 92//92 95//95 146//146
f 146//146 95//95 96//96
f 148//148 146//146 96//96
f 96//96 152//152 148//148
f 148//148 152//152 150//150
f 134//134 149//149 142//142
f 143//143 142//142 149//149
f 149//149 151//151 143//143
f 154//154 155//155 153//153
f 157//157 158//158 156//156
f 157//157 113//113 36//36
f 36//36 159//159 158//158
f 36//36 158//158 157//157
f 160//160 156//156 158//158
f 158//158 161//161 60//60
f 158//158 60//60 160//160
f 161//161 158//158 159//159
f 115//115 116//116 157//157
f 162//162 115//115 157//157
f 157//157 156//156 162//162
f 157//157 116//116 113//113
f 162//162 156//156 160//160
f 162//162 160//160 155//155
f 162//162 155//155 154//154
f 164//164 165//165 163//163
f 165//165 167//167 61//61
f 61//61 166//166 165//165
f 167//167 165//165 164//164
f 51//51 163//163 165//165
f 165//165 168//168 51//51
f 163//163 51//51 141//141
f 168//168 165//165 166//166
f 169//169 164//164 163//163
f 143//143 169//169 163//163
f 163//163 144//144 143//143
f 169//169 153//153 155//155
f 155//155 167//167 169//169
f 167//167 164//164 169//169
f 141//141 144//144 163//163
f 167//167 160//160 60//60
f 60//60 61//61 167//167
f 167//167 155//155 160//160
f 171//171 172//172 170//170
f 122//122 123//123 173//173
f 171//171 122//122 173//173
f 173//173 172//172 171//171
f 170//170 172//172 174//174
f 150//150 170//170 174//174
f 174//174 151//151 150//150
f 173//173 153//153 174//174
f 174//174 172//172 173//173
f 153//153 173//173 154//154
f 170//170 152//152 96//96
f 171//171 170//170 96//96
f 96//96 124//124 171//171
f 171//171 124//124 122//122
f 150//150 152//152 170//170
f 162//162 173//173 123//123
f 162//162 123//123 115//115
f 154//154 173//173 162//162
f 143//143 151//151 174//174
f 143//143 174//174 169//169
f 169//169 174//174 153//153
# 344 faces, 0 coords texture

# End of File
